<svg width="20" height="20" viewBox="0 0 20 20" fill="none" xmlns="http://www.w3.org/2000/svg">
<path d="M11.1726 10.0052L19.7458 1.43202C20.0767 1.11246 20.0858 0.585184 19.7663 0.254296C19.4467 -0.0765924 18.9194 -0.0857674 18.5885 0.233798C18.5816 0.240485 18.5748 0.247317 18.568 0.254296L9.9948 8.82748L1.42161 0.254247C1.09072 -0.0653187 0.56345 -0.0561437 0.243884 0.274745C-0.0678737 0.597532 -0.0678737 1.10924 0.243884 1.43202L8.81707 10.0052L0.243884 18.5784C-0.0812947 18.9036 -0.0812947 19.4309 0.243884 19.7561C0.569112 20.0812 1.09639 20.0812 1.42161 19.7561L9.9948 11.1829L18.568 19.7561C18.8989 20.0757 19.4262 20.0665 19.7457 19.7356C20.0574 19.4128 20.0574 18.9011 19.7457 18.5784L11.1726 10.0052Z" fill="#4D62A0" fill-opacity="0.7"/>
</svg>
